<svg class="thumb" width="1000" height="1000" viewBox="0,0,600,600" xmlns="http://www.w3.org/2000/svg" xmlns:inkscape="http://www.inkscape.org/namespaces/inkscape" xmlns:sodipodi="http://sodipodi.sourceforge.net/DTD/sodipodi-0.dtd" xmlns:xlink="http://www.w3.org/1999/xlink" xmlns:ns1="http://www.inkscape.org/namespaces/inkscape" xmlns:sketch="http://www.bohemiancoding.com/sketch/ns">
  <defs>
    <linearGradient x1="0" y1="0.5" x2="1" y2="0.5" id="linearGradientSk216ocrg4">
      <stop offset="0%" stop-color="#ffffff"></stop>
      <stop offset="0%" stop-color="#ffffff"></stop>
      <stop offset="100%" stop-color="#ffffff"></stop>
    </linearGradient>
  </defs>
  <g elementtype="background">
    <rect x="0" y="0" width="600" height="600" fill="url('#linearGradientSk216ocrg4')"></rect>
  </g>
  <g transform="matrix(1.0095,0,0,1.0095,-78.6084,195.7655)">
    <g transform="matrix(-1.0476,1.6132,1.6132,1.0476,124.6912,39.7049)">
      <svg width="29.029240197723595" height="38" viewBox="1.4849999999999994,-3,29.029240197723595,38">
        <defs>
          <linearGradient x1="0" y1="0.5" x2="1" y2="0.5" id="linearGradientSk216ocrga">
            <stop offset="0%" stop-color="#419a1c"></stop>
            <stop offset="100%" stop-color="#419a1c"></stop>
          </linearGradient>
        </defs>
        <g></g>
        <g></g>
        <g></g>
        <g></g>
        <g></g>
        <g></g>
        <g></g>
        <g>
          <path d="M24.485,2c0,8-18,4-18,20c0,6,2,8,2,8h2c0,0-3-2-3-8c0-4,9-8,9-8s-7.981,4.328-7.981,8.436C21.239,24.431,28.288,9.606,24.485,2z" stroke="none" fill="url('#linearGradientSk216ocrga')" style=""></path>
        </g>
      </svg>
    </g>
    <g transform="matrix(0.2667,0,0,0.2667,577.4803,80.3965)">
      <svg width="185.988" height="162.359" viewBox="-4.609,3,185.988,162.359">
        <defs>
          <linearGradient x1="0" y1="0.5" x2="1" y2="0.5" id="linearGradientSk216ocrgg">
            <stop offset="0%" stop-color="#153607"></stop>
            <stop offset="100%" stop-color="#153607"></stop>
          </linearGradient>
        </defs>
        <g></g>
        <g></g>
        <g></g>
        <g></g>
        <g></g>
        <g></g>
        <g></g>
        <g></g>
        <g></g>
        <g>
          <polygon points="88.385,8 0.391,160.359 176.379,160.359 " fill="url('#linearGradientSk216ocrgg')" stroke="none" style=""></polygon>
        </g>
      </svg>
    </g>
    <g transform="matrix(0.1909,0,0,0.1909,600.2991,88.2436)">
      <svg width="187.0337218024264" height="186.77" viewBox="-5.131860901213205,-5,187.0337218024264,186.77">
        <defs>
          <linearGradient x1="0" y1="0.5" x2="1" y2="0.5" id="linearGradientSk216ocrgm">
            <stop offset="0%" stop-color="#265d0c"></stop>
            <stop offset="100%" stop-color="#265d0c"></stop>
          </linearGradient>
        </defs>
        <g></g>
        <g></g>
        <g></g>
        <g></g>
        <g></g>
        <g></g>
        <g></g>
        <g></g>
        <g></g>
        <g>
          <circle cx="88.385" cy="88.385" r="88.385" fill="url('#linearGradientSk216ocrgm')" stroke="none" style=""></circle>
        </g>
      </svg>
    </g>
    <g transform="matrix(0.0427,0.0588,-0.2998,0.2178,630.0566,72.2802)">
      <svg width="186.769" height="186.769" viewBox="-5.013000000000005,-5,186.769,186.769">
        <defs>
          <linearGradient x1="0" y1="0.5" x2="1" y2="0.5" id="linearGradientSk216ocrgs">
            <stop offset="0%" stop-color="#419a1c"></stop>
            <stop offset="100%" stop-color="#419a1c"></stop>
          </linearGradient>
        </defs>
        <g></g>
        <g></g>
        <g></g>
        <g></g>
        <g></g>
        <g></g>
        <g></g>
        <g></g>
        <g></g>
        <g>
          <rect x="-0.013" y="0" width="176.769" height="176.769" fill="url('#linearGradientSk216ocrgs')" stroke="none" style=""></rect>
        </g>
      </svg>
    </g>
    <g transform="matrix(14.4815,0,0,14.4815,474.299,0.6295)">
      <svg width="16.61524063600265" height="14.630333101599433" viewBox="-4.206579068001324,284.9223784492002,16.61524063600265,14.630333101599433">
        <defs>
          <linearGradient x1="0" y1="0.5" x2="1" y2="0.5" id="linearGradientSk216ocrgy">
            <stop offset="0%" stop-color="#212121"></stop>
            <stop offset="100%" stop-color="#212121"></stop>
          </linearGradient>
        </defs>
        <g></g>
        <g></g>
        <g></g>
        <g></g>
        <g></g>
        <g></g>
        <g></g>
        <g></g>
        <g></g>
        <g></g>
        <g>
          <path d="m 0.9949671,289.9224 a 0.19841184,0.19844025 0 1 0 0,0.39684 l 0.6700888,0 c 0.142218,0 0.2670383,0.0908 0.3115363,0.22787 l 0.8901823,2.74275 -0.3916179,0.27438 c -0.1375571,0.0962 -0.2257674,0.24622 -0.2257754,0.43303 l 0,0.0268 c 0,0.28975 0.2393666,0.52862 0.5290454,0.52862 l 4.4286888,0 a 0.19841184,0.19844025 0 1 0 0,-0.39684 l -4.4286888,0 c -0.075402,0 -0.1322614,-0.0566 -0.1322614,-0.13178 l 0,-0.0268 c 2.7e-6,-0.0288 0.040676,-0.0971 0.056314,-0.10799 l 0.4706651,-0.32917 3.1546392,0 c 0.1996988,0 0.3779077,-0.13053 0.43915,-0.32036 l 0.6184249,-1.91806 c 0.094569,-0.29319 -0.1307615,-0.60561 -0.43915,-0.60561 l -3.8371288,0 a 0.19841184,0.19844025 0 1 0 0,0.39684 l 3.8371288,0 c 0.049029,0 0.077167,0.0387 0.061483,0.0873 l -0.1214132,0.37565 -3.2460847,0 a 0.13227455,0.1322935 0 1 0 0,0.26456 l 3.1608396,0 -0.1704955,0.52912 -2.4612988,0 a 0.13227452,0.13229346 0 1 0 0,0.26456 l 2.3760538,0 -0.1560287,0.48364 c -0.00915,0.0283 -0.033079,0.0455 -0.06148,0.0455 l -3.084374,0 -0.889148,-2.7386 C 2.2574386,290.12643 1.9783407,289.9224 1.6650559,289.9224 Z" style="color: rgb(0, 0, 0); font-style: normal; font-variant-ligatures: normal; font-variant-caps: normal; font-weight: normal; font-stretch: normal; font-size: medium; line-height: normal; font-family: sans-serif; text-indent: 0px; text-align: start; text-decoration: none; letter-spacing: normal; word-spacing: normal; text-transform: none; direction: ltr; writing-mode: lr-tb; baseline-shift: baseline; text-anchor: start; white-space: normal; clip-rule: nonzero; display: inline; overflow: visible; visibility: visible; opacity: 1; isolation: auto; mix-blend-mode: normal; color-interpolation: sRGB; color-interpolation-filters: linearRGB; fill-opacity: 1; fill-rule: evenodd; stroke-width: 1.5px; stroke-linecap: round; stroke-linejoin: round; stroke-miterlimit: 4; stroke-dasharray: none; stroke-dashoffset: 0px; stroke-opacity: 1; color-rendering: auto; image-rendering: auto; shape-rendering: auto; text-rendering: auto;" fill="url('#linearGradientSk216ocrgy')" stroke="none"></path>
        </g>
      </svg>
    </g>
    <g transform="matrix(14.4815,0,0,14.4815,502.7435,69.5925)">
      <svg width="10.793568" height="10.793679999999995" viewBox="-1.890682,289.88339,10.793568,10.793679999999995">
        <defs>
          <linearGradient x1="0" y1="0.5" x2="1" y2="0.5" id="linearGradientSk216ocrg14">
            <stop offset="0%" stop-color="#212121"></stop>
            <stop offset="100%" stop-color="#212121"></stop>
          </linearGradient>
        </defs>
        <g></g>
        <g></g>
        <g></g>
        <g></g>
        <g></g>
        <g></g>
        <g></g>
        <g></g>
        <g></g>
        <g></g>
        <g>
          <path style="opacity: 1; fill-opacity: 1; stroke-width: 1px; stroke-linecap: round; stroke-linejoin: round; stroke-miterlimit: 4; stroke-dasharray: none; stroke-opacity: 1;" d="m 3.902886,295.28023 a 0.39678401,0.39684083 0 0 1 -0.396784,0.39684 0.39678401,0.39684083 0 0 1 -0.396784,-0.39684 0.39678401,0.39684083 0 0 1 0.396784,-0.39684 0.39678401,0.39684083 0 0 1 0.396784,0.39684 z" fill="url('#linearGradientSk216ocrg14')" stroke="none"></path>
        </g>
      </svg>
    </g>
    <g transform="matrix(14.4815,0,0,14.4815,543.7435,69.5925)">
      <svg width="10.793568" height="10.793679999999995" viewBox="0.7545446999999994,289.88339,10.793568,10.793679999999995">
        <defs>
          <linearGradient x1="0" y1="0.5" x2="1" y2="0.5" id="linearGradientSk216ocrg1a">
            <stop offset="0%" stop-color="#212121"></stop>
            <stop offset="100%" stop-color="#212121"></stop>
          </linearGradient>
        </defs>
        <g></g>
        <g></g>
        <g></g>
        <g></g>
        <g></g>
        <g></g>
        <g></g>
        <g></g>
        <g></g>
        <g></g>
        <g>
          <path style="opacity: 1; fill-opacity: 1; stroke-width: 1px; stroke-linecap: round; stroke-linejoin: round; stroke-miterlimit: 4; stroke-dasharray: none; stroke-opacity: 1;" d="m 6.5481127,295.28023 a 0.39678401,0.39684083 0 0 1 -0.396784,0.39684 0.39678401,0.39684083 0 0 1 -0.396784,-0.39684 0.39678401,0.39684083 0 0 1 0.396784,-0.39684 0.39678401,0.39684083 0 0 1 0.396784,0.39684 z" fill="url('#linearGradientSk216ocrg1a')" stroke="none"></path>
        </g>
      </svg>
    </g>
    <g transform="matrix(1.0461,0,0,1.0461,156.9058,56.6747)">
      <svg width="388.30000000000007" height="181" style="overflow: visible;">
        <defs>
          <linearGradient x1="0" y1="0.5" x2="1" y2="0.5" id="linearGradientSk216ocrg1i">
            <stop offset="0%" stop-color="#419a1c"></stop>
            <stop offset="100%" stop-color="#419a1c"></stop>
          </linearGradient>
        </defs>
        <g transform="matrix(1,0,0,1,0,90.75)">
          <path d="M 8.3 0L 8.3-70L 40.1-70Q 51.5-70  60.25-65.65Q 69-61.3  73.85-53.4Q 78.7-45.5  78.7-35L 78.7-35Q 78.7-24.5  73.85-16.6Q 69-8.7  60.25-4.35Q 51.5 0  40.1 0L 40.1 0L 8.3 0ZM 24.5-13.3L 39.3-13.3Q 49.8-13.3  56.05-19.15Q 62.3-25  62.3-35L 62.3-35Q 62.3-45  56.05-50.85Q 49.8-56.7  39.3-56.7L 39.3-56.7L 24.5-56.7L 24.5-13.3ZM 142.5-26.7Q 142.5-26.4  142.2-22.5L 142.2-22.5L 101.5-22.5Q 102.6-17.5  106.69999999999999-14.6Q 110.8-11.7  116.89999999999999-11.7L 116.89999999999999-11.7Q 121.1-11.7  124.35-12.95Q 127.6-14.2  130.39999999999998-16.9L 130.39999999999998-16.9L 138.7-7.9Q 131.1 0.8  116.5 0.8L 116.5 0.8Q 107.39999999999999 0.8  100.39999999999999-2.75Q 93.39999999999999-6.3  89.6-12.6Q 85.8-18.9  85.8-26.9L 85.8-26.9Q 85.8-34.8  89.55-41.15Q 93.3-47.5  99.85-51.05Q 106.39999999999999-54.6  114.5-54.6L 114.5-54.6Q 122.39999999999999-54.6  128.8-51.2Q 135.2-47.8  138.85-41.45Q 142.5-35.1  142.5-26.7L 142.5-26.7ZM 114.6-42.8Q 109.3-42.8  105.69999999999999-39.8Q 102.1-36.8  101.3-31.6L 101.3-31.6L 127.8-31.6Q 127-36.7  123.39999999999999-39.75Q 119.8-42.8  114.6-42.8L 114.6-42.8ZM 173.1-54.6Q 185.6-54.6  192.29999999999998-48.65Q 199-42.7  199-30.7L 199-30.7L 199 0L 184.39999999999998 0L 184.39999999999998-6.7Q 180 0.8  168 0.8L 168 0.8Q 161.79999999999998 0.8  157.25-1.3Q 152.7-3.4  150.29999999999998-7.1Q 147.89999999999998-10.8  147.89999999999998-15.5L 147.89999999999998-15.5Q 147.89999999999998-23  153.54999999999998-27.3Q 159.2-31.6  171-31.6L 171-31.6L 183.39999999999998-31.6Q 183.39999999999998-36.7  180.29999999999998-39.45Q 177.2-42.2  171-42.2L 171-42.2Q 166.7-42.2  162.54999999999998-40.85Q 158.39999999999998-39.5  155.5-37.2L 155.5-37.2L 149.89999999999998-48.1Q 154.29999999999998-51.2  160.45-52.9Q 166.6-54.6  173.1-54.6L 173.1-54.6ZM 171.89999999999998-9.7Q 175.89999999999998-9.7  179-11.55Q 182.1-13.4  183.39999999999998-17L 183.39999999999998-17L 183.39999999999998-22.5L 172.7-22.5Q 163.1-22.5  163.1-16.2L 163.1-16.2Q 163.1-13.2  165.45-11.45Q 167.79999999999998-9.7  171.89999999999998-9.7L 171.89999999999998-9.7ZM 213.1 0L 213.1-74.2L 228.70000000000002-74.2L 228.70000000000002 0L 213.1 0ZM 243.20000000000002 0L 243.20000000000002-53.8L 258.8-53.8L 258.8 0L 243.20000000000002 0ZM 251.00000000000003-61.3Q 246.70000000000002-61.3  244.00000000000003-63.8Q 241.30000000000004-66.3  241.30000000000004-70L 241.30000000000004-70Q 241.30000000000004-73.7  244.00000000000003-76.2Q 246.70000000000002-78.7  251.00000000000003-78.7L 251.00000000000003-78.7Q 255.30000000000004-78.7  258-76.3Q 260.70000000000005-73.9  260.70000000000005-70.3L 260.70000000000005-70.3Q 260.70000000000005-66.4  258-63.85Q 255.30000000000004-61.3  251.00000000000003-61.3L 251.00000000000003-61.3ZM 291.40000000000003 0.8Q 284.70000000000005 0.8  278.3-0.85Q 271.90000000000003-2.5  268.1-5L 268.1-5L 273.3-16.2Q 276.90000000000003-13.9  282-12.45Q 287.1-11  292-11L 292-11Q 301.90000000000003-11  301.90000000000003-15.9L 301.90000000000003-15.9Q 301.90000000000003-18.2  299.20000000000005-19.2Q 296.5-20.2  290.90000000000003-20.9L 290.90000000000003-20.9Q 284.3-21.9  280-23.2Q 275.70000000000005-24.5  272.55-27.8Q 269.40000000000003-31.1  269.40000000000003-37.2L 269.40000000000003-37.2Q 269.40000000000003-42.3  272.35-46.25Q 275.3-50.2  280.95000000000005-52.4Q 286.6-54.6  294.3-54.6L 294.3-54.6Q 300-54.6  305.65000000000003-53.35Q 311.3-52.1  315-49.9L 315-49.9L 309.8-38.8Q 302.70000000000005-42.8  294.3-42.8L 294.3-42.8Q 289.3-42.8  286.8-41.4Q 284.3-40  284.3-37.8L 284.3-37.8Q 284.3-35.3  287-34.3Q 289.70000000000005-33.3  295.6-32.4L 295.6-32.4Q 302.20000000000005-31.3  306.40000000000003-30.05Q 310.6-28.8  313.70000000000005-25.5Q 316.8-22.2  316.8-16.3L 316.8-16.3Q 316.8-11.3  313.8-7.4Q 310.8-3.5  305.05-1.35Q 299.3 0.8  291.40000000000003 0.8L 291.40000000000003 0.8ZM 359.1-54.6Q 369.1-54.6  375.25000000000006-48.6Q 381.40000000000003-42.6  381.40000000000003-30.8L 381.40000000000003-30.8L 381.40000000000003 0L 365.80000000000007 0L 365.80000000000007-28.4Q 365.80000000000007-34.8  363.00000000000006-37.95Q 360.20000000000005-41.1  354.90000000000003-41.1L 354.90000000000003-41.1Q 349.00000000000006-41.1  345.50000000000006-37.45Q 342.00000000000006-33.8  342.00000000000006-26.6L 342.00000000000006-26.6L 342.00000000000006 0L 326.40000000000003 0L 326.40000000000003-74.2L 342.00000000000006-74.2L 342.00000000000006-48.2Q 345.1-51.3  349.50000000000006-52.95Q 353.90000000000003-54.6  359.1-54.6L 359.1-54.6Z" data-textpath="Dealish" data-text-anchor="middle" data-font-size="100" data-letterspacing="0" data-side="left" data-offset="0.5" data-dx="0" data-dy="0" data-xmlspace="preserve" data-href="" data-font="Montserrat" data-font-src="/Content/clientfonts/montserrat-bold.woff" data-font-scale="contain" transform="translate(0,0)" data-x="0" data-y="0" fill="url('#linearGradientSk216ocrg1i')"></path>
        </g>
      </svg>
    </g>
  </g>
</svg>