<svg id="icons" enable-background="new 0 0 64 64" height="512" viewBox="0 0 64 64" width="512" xmlns="http://www.w3.org/2000/svg"><path d="m55.5 64c.553 0 1-.447 1-1v-10-52c0-.553-.447-1-1-1h-42c-3.309 0-6 2.691-6 6v52c0 3.309 2.691 6 6 6zm-1-12h-38v-50h38zm-2 2h2v8h-2zm-39-52h1v50h-1c-1.537 0-2.938.586-4 1.54v-47.54c0-2.206 1.794-4 4-4zm-4 56c0-2.206 1.794-4 4-4h37v3.002h-37c-.553 0-1 .447-1 1s.447 1 1 1h37v2.998h-37c-2.206 0-4-1.794-4-4z"/><path d="m21.503 16.999c0 2.967 2.166 5.431 4.999 5.909v9.09c0 .553.447 1 1 1h16.001c.553 0 1-.447 1-1v-9.09c2.832-.479 4.998-2.942 4.998-5.909 0-3.309-2.691-6-6-6h-2.263c-1.267-1.811-3.364-3-5.736-3s-4.47 1.189-5.736 3h-2.264c-3.309.001-5.999 2.691-5.999 6zm6.999 13.001h14.001v.998h-14.001zm-.999-17.001h1.294c-.189.635-.295 1.305-.295 2 0 .553.447 1 1 1s1-.447 1-1c0-2.757 2.243-5 5-5s5 2.243 5 5c0 .553.447 1 1 1s1-.447 1-1c0-.695-.105-1.365-.295-2h1.294c2.206 0 4 1.794 4 4 0 2.203-1.79 3.995-3.992 3.999-.002 0-.004-.001-.006-.001-.276 0-.527.112-.708.294-.182.181-.294.432-.294.708 0 .003.002.006.002.01v5.991h-14.001v-5.996c0-.002.001-.003.001-.005 0-.139-.028-.271-.079-.391-.151-.359-.507-.611-.922-.611-.002 0-.004.001-.006.001-2.203-.004-3.993-1.795-3.993-3.999 0-2.206 1.794-4 4-4z"/><path d="m46.499 36.999h-21.994c-.553 0-1 .447-1 1s.447 1 1 1h21.994c.553 0 1-.447 1-1s-.447-1-1-1z"/><path d="m46.499 39.999h-21.994c-.553 0-1 .447-1 1s.447 1 1 1h21.994c.553 0 1-.447 1-1s-.447-1-1-1z"/><path d="m41.5 43.025h-11.996c-.553 0-1 .447-1 1s.447 1 1 1h11.996c.553 0 1-.447 1-1s-.447-1-1-1z"/></svg>